<svg aria-hidden="true" style="position:absolute;width:0;height:0;overflow:hidden" xmlns="http://www.w3.org/2000/svg"><defs><symbol id="antenna" viewBox="0 0 32 32"><path fill="#212121" style="fill:var(--color1, #212121)" d="m30.773 22.098-8.443-8.505.937-4.616c.225.09.485.144.758.146h.033a2.16 2.16 0 1 0-2.029-1.42l-.005-.015-4.96.606L8.973.161a.53.53 0 0 0-.376-.16.536.536 0 0 0-.373.155L6.712 1.66a.535.535 0 0 0 0 .754l.814.825C6.383 5.301 5.71 7.761 5.71 10.378c0 4.106 1.656 7.824 4.336 10.525l-.001-.001a.49.49 0 0 0 .146.097 2.986 2.986 0 0 0-.052.546v6.188h-6.4a2.669 2.669 0 0 0-2.667 2.666v1.067c0 .295.239.534.534.534H26.14a.534.534 0 0 0 .533-.534v-1.067a2.67 2.67 0 0 0-2.666-2.666h-6.4v-2.742a14.784 14.784 0 0 0 10.166-1.502l-.077.039.818.823a.534.534 0 0 0 .376.16.536.536 0 0 0 .373-.155l1.512-1.504a.535.535 0 0 0 0-.754zM23.28 6.233a1.067 1.067 0 1 1 .752 1.822h-.004a1.066 1.066 0 0 1-.747-1.822h-.002zm-1.256 3.504-.598 2.946-1.175-1.183 1.774-1.763zm-.605-.902-1.92 1.909-1.486-1.493 3.406-.416zM24.004 28.8a1.6 1.6 0 0 1 1.6 1.6v.534H2.138V30.4a1.6 1.6 0 0 1 1.6-1.6h20.267zm-7.466-2.134v1.067h-5.334v-1.067h5.334zM11.204 25.6v-4.053c0-1.294 1.196-2.346 2.667-2.346s2.667 1.053 2.667 2.346V25.6h-5.334zm6.4-1.696v-2.357c0-1.882-1.675-3.413-3.733-3.413h-.058c-1.353 0-2.54.707-3.213 1.771l-.009.016a13.817 13.817 0 0 1-3.812-9.55c0-2.314.567-4.496 1.569-6.414l-.036.077 18.602 18.709c-1.823.947-3.979 1.502-6.266 1.502-1.079 0-2.128-.124-3.136-.357l.093.018zm11.289-.684L7.836 2.039l.754-.752 7.935 7.98c.004 0 .006.007.01.01l13.114 13.191-.757.752z"/><path fill="#2196f3" style="fill:var(--color2, #2196f3)" d="M13.876 20.267h-.007a1.6 1.6 0 0 0-.003 3.2h.007a1.6 1.6 0 0 0 .002-3.2zm.373 1.978a.534.534 0 1 1-.378-.912.533.533 0 0 1 .374.911h.005z"/></symbol><symbol id="astronaut" viewBox="0 0 32 32"><path fill="#2196f3" style="fill:var(--color2, #2196f3)" d="M31.974 4.524a.535.535 0 0 0-.427-.362h-.003l-1.911-.278-.855-1.731c-.179-.365-.777-.365-.956 0l-.855 1.731-1.911.278a.534.534 0 0 0-.296.91l1.383 1.348-.326 1.903a.532.532 0 0 0 .774.562l1.709-.899 1.709.899a.534.534 0 0 0 .773-.565v.003l-.326-1.903 1.383-1.348a.535.535 0 0 0 .134-.55l.001.004zm-2.463 1.327a.53.53 0 0 0-.153.472l.191 1.114-1-.526a.525.525 0 0 0-.501.001l.003-.001-1 .526.191-1.114a.53.53 0 0 0-.152-.472l-.811-.79 1.119-.162a.532.532 0 0 0 .402-.292l.5-1.013.5 1.013a.532.532 0 0 0 .402.292l1.119.162-.809.79zm-3.377 14.671h-1.067v1.067h1.067v-1.067zm0 2.134h-1.067v1.066h1.067v-1.066zm1.066-1.067h-1.067v1.067H27.2v-1.067zm-2.133 0H24v1.067h1.067v-1.067zm-2.667 4.8h-1.067v1.067H22.4v-1.067zm0 2.134h-1.067v1.067H22.4v-1.067zm1.067-1.067H22.4v1.067h1.067v-1.067zm-2.133 0h-1.067v1.067h1.067v-1.067zM16 24.256h-1.066v1.067H16v-1.067zm0 2.133h-1.066v1.067H16v-1.067zm1.067-1.067H16v1.067h1.067v-1.067zm-2.133 0h-1.067v1.067h1.067v-1.067zm-9.067-19.2H4.801v1.066h1.066V6.122zm0 2.134H4.801v1.066h1.066V8.256zm1.066-1.067H5.866v1.067h1.066V7.189zm-2.133 0H3.733v1.067H4.8V7.189z"/><path fill="#212121" style="fill:var(--color1, #212121)" d="M24.715 14.16a1.774 1.774 0 0 0-1.179-.703l-.009-.001a1.769 1.769 0 0 0-1.344.355l.004-.003-1.253.96-1.898 1.417-1.358-.541c2.421-1.086 4.113-3.508 4.113-6.32 0-3.823-3.122-6.934-6.961-6.934S7.869 5.5 7.869 9.324c0 1.386.415 2.674 1.12 3.759l-2.768-.024c-.009 0-.016.005-.023.005a.511.511 0 0 0-.159.033l.004-.001c-.013.005-.026.007-.038.013-.006.003-.013.003-.019.006l-3.233 1.596-.001.001-1.893.91a.5.5 0 0 0-.065.036l.001-.001a1.782 1.782 0 0 0-.594 2.306l-.005-.01c.22.424.592.742 1.043.885l.013.003a1.772 1.772 0 0 0 1.388-.133l-.009.005 1.388-.738 2.264-1.169 1.357-.008-5.442 5.415-.001.001-1.339 1.333a1.643 1.643 0 0 0-.491 1.173v.005a1.668 1.668 0 0 0 1.667 1.664h.002a1.67 1.67 0 0 0 1.18-.485l1.314-1.309 1.741-1.3.901.897L4.07 27.28a1.643 1.643 0 0 0-.491 1.173v.004a1.662 1.662 0 0 0 1.666 1.664h.003a1.67 1.67 0 0 0 1.18-.485l4.488-4.472c.007-.006.016-.009.022-.016l5.166-5.658 3.471.494a.474.474 0 0 0 .262-.032c.017-.006.032-.015.049-.023.019-.01.039-.015.058-.027l3.213-2.133c.012-.008.018-.021.029-.03.013-.01.029-.014.041-.026l1.271-1.191c.348-.326.564-.787.564-1.3 0-.4-.132-.769-.355-1.066l.003.005zM2.13 17.77a.706.706 0 0 1-.564.05l.005.001a.717.717 0 0 1-.215-1.258l.002-.001 1.314-.632.316.924.133.389-.992.527zm3.497-1.828-1.548.8-.255-.746-.184-.537 2.027-1.001-.04 1.484zm15.1-6.62c0 .918-.219 1.785-.599 2.56l-4.181-1.899a1.865 1.865 0 0 0-.782-1.384l-.006-.004 1.464-4.861c2.377.757 4.104 2.975 4.104 5.588zm-11.789 0c0-3.235 2.644-5.867 5.894-5.867.253 0 .5.022.745.053l-1.432 4.753c-.019 0-.037-.006-.057-.006h-.001a1.872 1.872 0 0 0-1.872 1.867 1.873 1.873 0 0 0 1.872 1.867h.001c.695 0 1.295-.383 1.618-.944l3.863 1.755a5.891 5.891 0 0 1-4.737 2.39c-3.25 0-5.894-2.632-5.894-5.867zm5.957.8c0 .441-.362.8-.806.8h-.001a.804.804 0 0 1-.804-.8c0-.441.361-.8.806-.8s.806.359.806.8zM2.464 25.146a.606.606 0 0 1-.855.001.591.591 0 0 1 0-.844l.962-.959.852.848-.959.954zm3.214 3.734a.606.606 0 0 1-.855.001.591.591 0 0 1 0-.844l.963-.959.852.848-.96.955zm3.482-3.469-.001.001-1.765 1.76-.852-.848 1.765-1.757a.527.527 0 0 0 .09-.136c.007-.014.02-.026.026-.04.016-.041.019-.085.026-.128.003-.025.014-.048.014-.073 0-.035-.013-.07-.02-.105-.006-.032-.006-.064-.019-.096a.536.536 0 0 0-.092-.138c-.01-.012-.014-.026-.025-.038h-.001l-.001-.002-1.607-1.6c-.017-.017-.039-.024-.058-.038a.491.491 0 0 0-.084-.056l-.003-.001a.527.527 0 0 0-.09-.031l-.003-.001a.502.502 0 0 0-.101-.02h-.025a.603.603 0 0 0-.075.005h.003c-.036.005-.069.009-.104.021s-.064.027-.094.045c-.02.011-.043.015-.061.029l-1.774 1.324-.901-.897 2.399-2.386 4.36 4.289-.928.919zm6.819-7.017c-.016-.002-.03.004-.046.003l-.027-.001a.562.562 0 0 0-.092.008h.003a.484.484 0 0 0-.187.07l.002-.001a.492.492 0 0 0-.083.061c-.013.011-.028.016-.04.029l-4.698 5.146-4.328-4.256 2.833-2.818a.535.535 0 0 0-.378-.911h-.002l-2.219.013.028-1.607 3.104.027a6.928 6.928 0 0 0 4.978 2.101h.003c.438 0 .864-.046 1.28-.122.04.032.08.064.129.085l2.41.96.152.758.178.886-3.003-.427zm4.041.178-.313-1.558 1.446-1.08.946 1.257-2.08 1.381zm3.753-2.831-.837.785-.931-1.236.831-.637a.735.735 0 0 1 .543-.143.718.718 0 0 1 .621.71.71.71 0 0 1-.226.521z"/><path fill="#212121" style="fill:var(--color1, #212121)" d="m13.602 18.544-2.143-2.134a.53.53 0 0 0-.752 0l-2.143 2.133a.535.535 0 0 0 0 .756l2.142 2.134a.53.53 0 0 0 .752 0l2.143-2.134a.532.532 0 0 0 0-.756zm-2.519 1.759-1.387-1.381 1.386-1.381 1.387 1.381-1.387 1.381zm6.081-15.232-.258 1.036c.071.018 1.738.452 1.738 2.149h1.067c0-2.017-1.666-2.965-2.547-3.184zm2.547 4.251h-1.067v1.066h1.067V9.322z"/></symbol><symbol id="clock" viewBox="0 0 32 32"><path fill="#212121" style="fill:var(--color1, #212121)" d="M31.296 15.301C31.295 6.849 24.441-.002 15.988 0S.685 6.855.687 15.308c.002 6.788 4.422 12.543 10.541 14.545l.108.031a.667.667 0 0 0 .529-.065.636.636 0 0 0 .283-.357l3.865-12.25a1.913 1.913 0 1 0-.852-3.63l.011-.005-5.106-5.107a.638.638 0 0 0-.902.902l5.103 5.109a1.847 1.847 0 0 0-.191.826c0 .602.283 1.137.723 1.48l.004.003-3.682 11.673C3.843 25.782.117 17.709 2.797 10.431S13.551-.573 20.829 2.108c7.278 2.681 11.004 10.754 8.323 18.032-1.345 3.581-4.003 6.406-7.374 7.938l-.088.036-.398-1.874a.639.639 0 0 0-1.05-.343l.001-.001-3.837 3.426a.637.637 0 0 0 .227 1.083l.005.001 4.899 1.563a.637.637 0 0 0 .818-.744l.001.004-.391-1.839c5.528-2.374 9.329-7.772 9.329-14.057v-.034.002zm-15.304-.637a.638.638 0 0 1 0 1.276.638.638 0 0 1 0-1.276zm2.1 14.864 2.184-1.948.603 2.84-2.787-.892z"/><path fill="#2196f3" style="fill:var(--color2, #2196f3)" d="M15.354 3.185V4.46a.638.638 0 0 0 1.276 0V3.185a.638.638 0 1 0-1.276 0zM3.876 14.664a.638.638 0 0 0 0 1.276h1.275a.638.638 0 0 0 0-1.276H3.876zm24.232 1.275a.638.638 0 0 0 0-1.276h-1.275a.638.638 0 0 0 0 1.276h1.275z"/></symbol><symbol id="diagram" viewBox="0 0 32 32"><path fill="#2196f3" style="fill:var(--color2, #2196f3)" d="M14.926 14.965h1.066v4.798h-1.066v-4.798zm4.264 2.132h1.066v2.665H19.19v-2.665zm-8.529 1.599h1.066v1.066h-1.066v-1.066zm-3.198-.533h1.066v1.599H7.463v-1.599z"/><path fill="#212121" style="fill:var(--color1, #212121)" d="M1.599 28.291h25.586a1.6 1.6 0 0 0 1.599-1.599V24.56a1.6 1.6 0 0 0-1.599-1.599h-.533V9.667l3.028-2.868a1.608 1.608 0 1 0-.742-.752l-.004-.01-2.281 2.162v-1.23a1.6 1.6 0 0 0-1.599-1.599H3.731a1.6 1.6 0 0 0-1.599 1.599v15.992h-.533A1.6 1.6 0 0 0 0 24.56v2.132a1.6 1.6 0 0 0 1.599 1.599zM30.384 4.837a.533.533 0 0 1 0 1.066.533.533 0 0 1 0-1.066zM3.198 6.969c0-.294.239-.533.533-.533h21.323c.294 0 .533.239.533.533v2.239l-1.066 1.013V8.036a.534.534 0 0 0-.534-.534H4.798a.534.534 0 0 0-.534.533v13.327c0 .294.239.533.534.533h19.189a.534.534 0 0 0 .534-.533v-9.675l1.066-1.01V22.96H3.198V6.969zm4.798 6.93h-.005a1.6 1.6 0 1 0 1.112 2.748l1.853.93a.535.535 0 0 0 .636-.122l3.939-4.432 3.872 2.902a.534.534 0 0 0 .686-.039l3.365-3.188v8.131H5.331V8.568h18.123v2.661l-3.771 3.572-3.904-2.927a.534.534 0 0 0-.718.071v.001l-3.993 4.493-1.493-.746c.011-.064.017-.128.02-.193a1.6 1.6 0 0 0-1.599-1.599zm.533 1.599a.533.533 0 0 1-1.066 0 .533.533 0 0 1 1.066 0zm3.198 8.528h5.33v.533a.533.533 0 0 1-.533.533h-4.265a.533.533 0 0 1-.533-.533v-.533zm-10.66.534c0-.294.238-.533.533-.533h9.062v.533a1.6 1.6 0 0 0 1.599 1.599h4.265a1.6 1.6 0 0 0 1.599-1.599v-.533h9.062c.294 0 .533.239.533.533v2.132a.533.533 0 0 1-.533.533H1.601a.533.533 0 0 1-.533-.533V24.56z"/></symbol><symbol id="envelope" viewBox="0 0 43 32"><path fill="#212121" style="fill:var(--color1, #212121)" d="M1.599 28.291h25.586a1.6 1.6 0 0 0 1.599-1.599V24.56a1.6 1.6 0 0 0-1.599-1.599h-.533V9.667l3.028-2.868a1.608 1.608 0 1 0-.742-.752l-.004-.01-2.281 2.162v-1.23a1.6 1.6 0 0 0-1.599-1.599H3.731a1.6 1.6 0 0 0-1.599 1.599v15.992h-.533A1.6 1.6 0 0 0 0 24.56v2.132a1.6 1.6 0 0 0 1.599 1.599zM30.384 4.837a.533.533 0 0 1 0 1.066.533.533 0 0 1 0-1.066zM3.198 6.969c0-.294.239-.533.533-.533h21.323c.294 0 .533.239.533.533v2.239l-1.066 1.013V8.036a.534.534 0 0 0-.534-.534H4.798a.534.534 0 0 0-.534.533v13.327c0 .294.239.533.534.533h19.189a.534.534 0 0 0 .534-.533v-9.675l1.066-1.01V22.96H3.198V6.969zm4.798 6.93h-.005a1.6 1.6 0 1 0 1.112 2.748l1.853.93a.535.535 0 0 0 .636-.122l3.939-4.432 3.872 2.902a.534.534 0 0 0 .686-.039l3.365-3.188v8.131H5.331V8.568h18.123v2.661l-3.771 3.572-3.904-2.927a.534.534 0 0 0-.718.071v.001l-3.993 4.493-1.493-.746c.011-.064.017-.128.02-.193a1.6 1.6 0 0 0-1.599-1.599zm.533 1.599a.533.533 0 0 1-1.066 0 .533.533 0 0 1 1.066 0zm3.198 8.528h5.33v.533a.533.533 0 0 1-.533.533h-4.265a.533.533 0 0 1-.533-.533v-.533zm-10.66.534c0-.294.238-.533.533-.533h9.062v.533a1.6 1.6 0 0 0 1.599 1.599h4.265a1.6 1.6 0 0 0 1.599-1.599v-.533h9.062c.294 0 .533.239.533.533v2.132a.533.533 0 0 1-.533.533H1.601a.533.533 0 0 1-.533-.533V24.56z"/></symbol><symbol id="facebook" viewBox="0 0 32 32"><path fill="#212121" style="fill:var(--color1, #212121)" d="M1.599 28.291h25.586a1.6 1.6 0 0 0 1.599-1.599V24.56a1.6 1.6 0 0 0-1.599-1.599h-.533V9.667l3.028-2.868a1.608 1.608 0 1 0-.742-.752l-.004-.01-2.281 2.162v-1.23a1.6 1.6 0 0 0-1.599-1.599H3.731a1.6 1.6 0 0 0-1.599 1.599v15.992h-.533A1.6 1.6 0 0 0 0 24.56v2.132a1.6 1.6 0 0 0 1.599 1.599zM30.384 4.837a.533.533 0 0 1 0 1.066.533.533 0 0 1 0-1.066zM3.198 6.969c0-.294.239-.533.533-.533h21.323c.294 0 .533.239.533.533v2.239l-1.066 1.013V8.036a.534.534 0 0 0-.534-.534H4.798a.534.534 0 0 0-.534.533v13.327c0 .294.239.533.534.533h19.189a.534.534 0 0 0 .534-.533v-9.675l1.066-1.01V22.96H3.198V6.969zm4.798 6.93h-.005a1.6 1.6 0 1 0 1.112 2.748l1.853.93a.535.535 0 0 0 .636-.122l3.939-4.432 3.872 2.902a.534.534 0 0 0 .686-.039l3.365-3.188v8.131H5.331V8.568h18.123v2.661l-3.771 3.572-3.904-2.927a.534.534 0 0 0-.718.071v.001l-3.993 4.493-1.493-.746c.011-.064.017-.128.02-.193a1.6 1.6 0 0 0-1.599-1.599zm.533 1.599a.533.533 0 0 1-1.066 0 .533.533 0 0 1 1.066 0zm3.198 8.528h5.33v.533a.533.533 0 0 1-.533.533h-4.265a.533.533 0 0 1-.533-.533v-.533zm-10.66.534c0-.294.238-.533.533-.533h9.062v.533a1.6 1.6 0 0 0 1.599 1.599h4.265a1.6 1.6 0 0 0 1.599-1.599v-.533h9.062c.294 0 .533.239.533.533v2.132a.533.533 0 0 1-.533.533H1.601a.533.533 0 0 1-.533-.533V24.56z"/></symbol><symbol id="instagram" viewBox="0 0 32 32"><path fill="#212121" style="fill:var(--color1, #212121)" d="M1.599 28.291h25.586a1.6 1.6 0 0 0 1.599-1.599V24.56a1.6 1.6 0 0 0-1.599-1.599h-.533V9.667l3.028-2.868a1.608 1.608 0 1 0-.742-.752l-.004-.01-2.281 2.162v-1.23a1.6 1.6 0 0 0-1.599-1.599H3.731a1.6 1.6 0 0 0-1.599 1.599v15.992h-.533A1.6 1.6 0 0 0 0 24.56v2.132a1.6 1.6 0 0 0 1.599 1.599zM30.384 4.837a.533.533 0 0 1 0 1.066.533.533 0 0 1 0-1.066zM3.198 6.969c0-.294.239-.533.533-.533h21.323c.294 0 .533.239.533.533v2.239l-1.066 1.013V8.036a.534.534 0 0 0-.534-.534H4.798a.534.534 0 0 0-.534.533v13.327c0 .294.239.533.534.533h19.189a.534.534 0 0 0 .534-.533v-9.675l1.066-1.01V22.96H3.198V6.969zm4.798 6.93h-.005a1.6 1.6 0 1 0 1.112 2.748l1.853.93a.535.535 0 0 0 .636-.122l3.939-4.432 3.872 2.902a.534.534 0 0 0 .686-.039l3.365-3.188v8.131H5.331V8.568h18.123v2.661l-3.771 3.572-3.904-2.927a.534.534 0 0 0-.718.071v.001l-3.993 4.493-1.493-.746c.011-.064.017-.128.02-.193a1.6 1.6 0 0 0-1.599-1.599zm.533 1.599a.533.533 0 0 1-1.066 0 .533.533 0 0 1 1.066 0zm3.198 8.528h5.33v.533a.533.533 0 0 1-.533.533h-4.265a.533.533 0 0 1-.533-.533v-.533zm-10.66.534c0-.294.238-.533.533-.533h9.062v.533a1.6 1.6 0 0 0 1.599 1.599h4.265a1.6 1.6 0 0 0 1.599-1.599v-.533h9.062c.294 0 .533.239.533.533v2.132a.533.533 0 0 1-.533.533H1.601a.533.533 0 0 1-.533-.533V24.56z"/></symbol><symbol id="linkedin" viewBox="0 0 32 32"><path fill="#212121" style="fill:var(--color1, #212121)" d="M1.599 28.291h25.586a1.6 1.6 0 0 0 1.599-1.599V24.56a1.6 1.6 0 0 0-1.599-1.599h-.533V9.667l3.028-2.868a1.608 1.608 0 1 0-.742-.752l-.004-.01-2.281 2.162v-1.23a1.6 1.6 0 0 0-1.599-1.599H3.731a1.6 1.6 0 0 0-1.599 1.599v15.992h-.533A1.6 1.6 0 0 0 0 24.56v2.132a1.6 1.6 0 0 0 1.599 1.599zM30.384 4.837a.533.533 0 0 1 0 1.066.533.533 0 0 1 0-1.066zM3.198 6.969c0-.294.239-.533.533-.533h21.323c.294 0 .533.239.533.533v2.239l-1.066 1.013V8.036a.534.534 0 0 0-.534-.534H4.798a.534.534 0 0 0-.534.533v13.327c0 .294.239.533.534.533h19.189a.534.534 0 0 0 .534-.533v-9.675l1.066-1.01V22.96H3.198V6.969zm4.798 6.93h-.005a1.6 1.6 0 1 0 1.112 2.748l1.853.93a.535.535 0 0 0 .636-.122l3.939-4.432 3.872 2.902a.534.534 0 0 0 .686-.039l3.365-3.188v8.131H5.331V8.568h18.123v2.661l-3.771 3.572-3.904-2.927a.534.534 0 0 0-.718.071v.001l-3.993 4.493-1.493-.746c.011-.064.017-.128.02-.193a1.6 1.6 0 0 0-1.599-1.599zm.533 1.599a.533.533 0 0 1-1.066 0 .533.533 0 0 1 1.066 0zm3.198 8.528h5.33v.533a.533.533 0 0 1-.533.533h-4.265a.533.533 0 0 1-.533-.533v-.533zm-10.66.534c0-.294.238-.533.533-.533h9.062v.533a1.6 1.6 0 0 0 1.599 1.599h4.265a1.6 1.6 0 0 0 1.599-1.599v-.533h9.062c.294 0 .533.239.533.533v2.132a.533.533 0 0 1-.533.533H1.601a.533.533 0 0 1-.533-.533V24.56z"/></symbol><symbol id="logo-brand" viewBox="0 0 57 32"><path fill="#afb1b8" style="fill:var(--color3, #afb1b8)" d="M14.27 23.859a.768.768 0 0 1 .197.56.756.756 0 0 1-.073.326l.002-.005a.83.83 0 0 1-.232.296l-.002.001a1.39 1.39 0 0 1-.885.24h.004-1.549v-3.301h1.517a1.377 1.377 0 0 1 .846.222l-.005-.003a.782.782 0 0 1 .227.277.71.71 0 0 1 .068.341.722.722 0 0 1-.176.505.842.842 0 0 1-.462.258.893.893 0 0 1 .523.283zm-1.816-.498h.649a.655.655 0 0 0 .412-.11.386.386 0 0 0 .109-.144l.001-.003a.358.358 0 0 0 .03-.145l-.001-.033v.001l.001-.028a.376.376 0 0 0-.031-.15l.001.002a.399.399 0 0 0-.108-.147h-.001a.665.665 0 0 0-.373-.113l-.054.002h.002-.638v.867zm1.124 1.266a.407.407 0 0 0 .118-.149l.001-.003a.37.37 0 0 0 .034-.158l-.001-.027v.001l.001-.024a.38.38 0 0 0-.037-.165l.001.002a.41.41 0 0 0-.121-.151l-.001-.001a.705.705 0 0 0-.397-.121l-.045.001h.002-.68v.908h.689a.727.727 0 0 0 .435-.115zm3.793.651-.843-1.291h-.317v1.291h-.726v-3.302h1.374a1.433 1.433 0 0 1 .96.284l-.004-.003a1.016 1.016 0 0 1 .329.735.99.99 0 0 1-.228.633l.001-.002a1.152 1.152 0 0 1-.649.335l-.006.001.899 1.319h-.789zm-1.161-1.74h.594c.412 0 .619-.166.619-.5l.001-.027a.464.464 0 0 0-.035-.176l.001.003a.494.494 0 0 0-.118-.171.68.68 0 0 0-.47-.133h.003-.601l.007 1.005zm5.129 1.075h-1.446l-.255.665h-.761l1.328-3.265h.823l1.323 3.265h-.761l-.25-.665zm-.194-.499-.529-1.394-.529 1.394h1.057zm5.16 1.164h-.72l-1.616-2.245v2.245h-.719v-3.302h.719l1.616 2.259v-2.259h.72v3.302zm4.113-.79a1.501 1.501 0 0 1-.652.582c-.28.132-.608.209-.955.209l-.062-.001h.003-1.282v-3.302h1.283l.06-.001c.345 0 .673.075.968.209l-.015-.006c.276.128.503.329.652.576a1.78 1.78 0 0 1 0 1.733zm-.825-.079c.196-.205.317-.482.318-.788 0-.289-.113-.569-.318-.788a1.317 1.317 0 0 0-.906-.281h.004-.5v2.138h.5a1.323 1.323 0 0 0 .905-.282l-.003.002zm-7.803-20.8s9.3 3.215 9.103 7.867v7.869s-9.294-3.216-9.1-7.869l-.003-7.867zm17.389 13.894a13.494 13.494 0 0 1 5.909-1.994v-2.464c-2.444.863-4.517 2.427-5.909 4.458z"/><path fill="#afb1b8" style="fill:var(--color3, #afb1b8)" d="M38.124 18.245c1.437-2.651 3.93-4.696 6.964-5.716V5.431s-13.245 4.58-12.965 11.205v11.203s.59-.205 1.519-.589c0-.358 0-.719.043-1.083.274-3.075 1.87-5.925 4.439-7.924z"/></symbol><symbol id="logo-company" viewBox="0 0 57 32"><path fill="#afb1b8" style="fill:var(--color3, #afb1b8)" d="m24.151 21.382.058.011c1.975-1.228 3.481-2.942 4.323-4.922s.981-4.133.4-6.181l-3.08-2.676c1.245 2.199 1.747 4.661 1.445 7.099-.301 2.437-1.392 4.75-3.147 6.669zm10.445-6.541c-.523 2.052-1.794 3.902-3.623 5.276-.5.38-1.064.737-1.658 1.043l-.065.03c1.49-.38 2.859-1.053 4.003-1.966s2.03-2.042 2.592-3.3l-1.249-1.084z"/><path fill="#afb1b8" style="fill:var(--color3, #afb1b8)" d="m34.106 14.539-1.778-1.545c-.034 1.762-.611 3.483-1.669 4.986s-2.562 2.732-4.352 3.559h.009c.399 0 .797-.021 1.194-.062 1.673-.594 3.151-1.538 4.302-2.748s1.94-2.65 2.295-4.189zm-9.697-8.054L22.287 4.64c-1.897.637-3.527 1.756-4.68 3.212s-1.772 3.179-1.778 4.946c.007 1.952.763 3.846 2.149 5.383 1.385 1.536 3.321 2.628 5.501 3.101 1.946-2.06 3.085-4.605 3.252-7.266s-.647-5.299-2.323-7.531zm14.599 7.769c-.007-2.316-1.07-4.535-2.955-6.173s-4.439-2.561-7.105-2.567h-.021a11.28 11.28 0 0 0-3.66.606l.079-.024 12.989 11.286a7.537 7.537 0 0 0 .672-3.128z"/></symbol><symbol id="logo-foster" viewBox="0 0 57 32"><path fill="#afb1b8" style="fill:var(--color3, #afb1b8)" d="m34.106 14.539-1.778-1.545c-.034 1.762-.611 3.483-1.669 4.986s-2.562 2.732-4.352 3.559h.009c.399 0 .797-.021 1.194-.062 1.673-.594 3.151-1.538 4.302-2.748s1.94-2.65 2.295-4.189zm-9.697-8.054L22.287 4.64c-1.897.637-3.527 1.756-4.68 3.212s-1.772 3.179-1.778 4.946c.007 1.952.763 3.846 2.149 5.383 1.385 1.536 3.321 2.628 5.501 3.101 1.946-2.06 3.085-4.605 3.252-7.266s-.647-5.299-2.323-7.531zm14.599 7.769c-.007-2.316-1.07-4.535-2.955-6.173s-4.439-2.561-7.105-2.567h-.021a11.28 11.28 0 0 0-3.66.606l.079-.024 12.989 11.286a7.537 7.537 0 0 0 .672-3.128z"/></symbol><symbol id="logo-tagline" viewBox="0 0 57 32"><path fill="#afb1b8" style="fill:var(--color3, #afb1b8)" d="M18.722 27.036 3.2 23.227V9.828l15.522 3.807v13.401z"/><path fill="#afb1b8" style="fill:var(--color3, #afb1b8)" d="m10.661 4.465 13.578 3.33-5.774 4.987L4.886 9.45l5.776-4.986zm-.257-.856L3.2 9.828l15.522 3.808 7.202-6.22-15.52-3.807zm9.191 22.673 6.329-5.466-6.33-1.552v7.019z"/></symbol><symbol id="logo-windows" viewBox="0 0 57 32"><path fill="#afb1b8" style="fill:var(--color3, #afb1b8)" d="M19.06 24.113a.794.794 0 0 0-.572-.243l-.03.001h.001-.012a.888.888 0 0 0-.34.067l.006-.002a.785.785 0 0 0-.442.444l-.002.005a.874.874 0 0 0-.062.335v2.023a.957.957 0 0 0 .079.415.808.808 0 0 0 .203.271.714.714 0 0 0 .277.144c.099.027.201.042.302.042a.854.854 0 0 0 .838-.851v-.226h-.53v.192c0 .06-.011.118-.032.171l.001-.003a.315.315 0 0 1-.077.114.367.367 0 0 1-.221.077.265.265 0 0 1-.247-.108l-.001-.001a.478.478 0 0 1-.071-.251v-.021.001-1.887a.643.643 0 0 1 .065-.302.27.27 0 0 1 .227-.124l.033.002h-.001.01c.092 0 .174.045.226.114l.001.001a.425.425 0 0 1 .088.26v.012-.001.175h.524v-.215a.958.958 0 0 0-.067-.352l.002.006a.838.838 0 0 0-.177-.285zm3.142-.022a.92.92 0 0 0-.917-.166.838.838 0 0 0-.483.443l-.002.005a.94.94 0 0 0-.077.392v1.94a.932.932 0 0 0 .077.397.77.77 0 0 0 .205.271.837.837 0 0 0 .279.171.914.914 0 0 0 .919-.172l-.001.001a.831.831 0 0 0 .199-.271.934.934 0 0 0 .077-.397v-1.958a.952.952 0 0 0-.08-.381l.002.006a.876.876 0 0 0-.199-.283zm-.247 2.615.001.03a.349.349 0 0 1-.106.251.388.388 0 0 1-.499 0h.001a.344.344 0 0 1-.106-.25c0-.011 0-.022.002-.032v.001-1.941l-.001-.03c0-.098.041-.187.106-.25a.388.388 0 0 1 .499 0h-.001a.344.344 0 0 1 .106.25l-.001.032v-.001 1.941zm4.374.867v-3.675h-.508l-.668 1.945h-.009l-.674-1.945h-.503v3.674h.525v-2.235h.01l.514 1.58h.262l.518-1.58h.01v2.235h.525zm2.982-3.416a.727.727 0 0 0-.297-.201 1.153 1.153 0 0 0-.361-.057h-.8v3.675h.524v-1.435h.269a.968.968 0 0 0 .473-.1.779.779 0 0 0 .286-.278l.002-.003a.893.893 0 0 0 .12-.32 2.56 2.56 0 0 0 .028-.385v-.035.002a2.107 2.107 0 0 0-.051-.525.789.789 0 0 0-.193-.338zm-.27 1.12a.45.45 0 0 1-.05.194l.001-.003a.3.3 0 0 1-.133.128l-.002.001a.525.525 0 0 1-.22.047l-.028-.001h.001-.239v-1.249h.27l.025-.001c.077 0 .149.017.214.048l-.003-.001a.299.299 0 0 1 .122.134l.001.002a.537.537 0 0 1 .046.205v.244c0 .085.005.174 0 .252h-.005zm2.75-1.378h-.429l-.81 3.675h.524l.154-.789h.714l.154.789h.523l-.829-3.675zm-.483 2.384.258-1.332h.01l.256 1.332h-.523zm3.865-.171h-.01l-.79-2.213h-.503v3.675h.523v-2.21h.011l.8 2.209h.493v-3.674h-.523v2.213zm3.199-2.213-.421 1.461h-.011l-.421-1.461h-.554l.719 2.122v1.553h.524v-1.553l.719-2.121h-.555zM17.6 28.611h.252v.708h.171v-.708h.251v-.145H17.6v.146zm2.121-.146-.331.853h.182l.07-.194h.34l.073.194h.187l-.339-.853h-.182zm-.027.516.116-.316.116.316h-.232zm2.124.023h.197v.11a.326.326 0 0 1-.203.072H21.8a.218.218 0 0 1-.169-.081.352.352 0 0 1-.063-.203l.001-.02v.001c0-.19.082-.285.245-.285l.018-.001a.18.18 0 0 1 .174.136v.001l.169-.033c-.036-.166-.156-.251-.362-.251h-.011a.43.43 0 0 0-.287.11.415.415 0 0 0-.123.329v-.001.02c0 .115.041.22.11.301l-.001-.001a.411.411 0 0 0 .297.126l.027-.001h-.001.014a.51.51 0 0 0 .348-.137v-.336h-.37v.144zm2.141-.539h-.173v.853h.597v-.145h-.425v-.708zm1.811 0h-.173v.853h.173v-.853zm1.769.57-.349-.57h-.167v.853h.16v-.557l.343.557h.172v-.853h-.158v.57zm1.601-.093h.425v-.145h-.425v-.187h.457v-.146h-.63v.853h.647v-.145h-.475v-.231zm3.88-.14h-.336v-.336h-.171v.853h.171v-.373h.336v.373h.172v-.853h-.172v.337zm1.609.14h.427v-.145h-.427v-.187h.459v-.146h-.629v.853h.646v-.145h-.475v-.231zm2.183.001c.149-.023.224-.102.224-.237l.001-.024a.205.205 0 0 0-.085-.166h-.001a.478.478 0 0 0-.216-.051l-.035.001h.002-.362v.853h.172v-.357h.048c.034 0 .066.007.094.02l-.001-.001a.181.181 0 0 1 .061.062l.186.271h.205l-.104-.166a.598.598 0 0 0-.187-.203l-.002-.001zm-.173-.118h-.126v-.214h.135l.036-.001c.049 0 .097.008.141.023l-.003-.001c.023.021.037.05.037.083a.114.114 0 0 1-.045.09.464.464 0 0 1-.142.021l-.033-.001h.002zm1.82.117h.425v-.145h-.425v-.187h.459v-.146h-.631v.853h.647v-.145h-.475v-.231z"/></symbol><symbol id="logo-yaco" viewBox="0 0 57 32"><path fill="#afb1b8" style="fill:var(--color3, #afb1b8)" d="M19.06 24.113a.794.794 0 0 0-.572-.243l-.03.001h.001-.012a.888.888 0 0 0-.34.067l.006-.002a.785.785 0 0 0-.442.444l-.002.005a.874.874 0 0 0-.062.335v2.023a.957.957 0 0 0 .079.415.808.808 0 0 0 .203.271.714.714 0 0 0 .277.144c.099.027.201.042.302.042a.854.854 0 0 0 .838-.851v-.226h-.53v.192c0 .06-.011.118-.032.171l.001-.003a.315.315 0 0 1-.077.114.367.367 0 0 1-.221.077.265.265 0 0 1-.247-.108l-.001-.001a.478.478 0 0 1-.071-.251v-.021.001-1.887a.643.643 0 0 1 .065-.302.27.27 0 0 1 .227-.124l.033.002h-.001.01c.092 0 .174.045.226.114l.001.001a.425.425 0 0 1 .088.26v.012-.001.175h.524v-.215a.958.958 0 0 0-.067-.352l.002.006a.838.838 0 0 0-.177-.285zm3.142-.022a.92.92 0 0 0-.917-.166.838.838 0 0 0-.483.443l-.002.005a.94.94 0 0 0-.077.392v1.94a.932.932 0 0 0 .077.397.77.77 0 0 0 .205.271.837.837 0 0 0 .279.171.914.914 0 0 0 .919-.172l-.001.001a.831.831 0 0 0 .199-.271.934.934 0 0 0 .077-.397v-1.958a.952.952 0 0 0-.08-.381l.002.006a.876.876 0 0 0-.199-.283zm-.247 2.615.001.03a.349.349 0 0 1-.106.251.388.388 0 0 1-.499 0h.001a.344.344 0 0 1-.106-.25c0-.011 0-.022.002-.032v.001-1.941l-.001-.03c0-.098.041-.187.106-.25a.388.388 0 0 1 .499 0h-.001a.344.344 0 0 1 .106.25l-.001.032v-.001 1.941zm4.374.867v-3.675h-.508l-.668 1.945h-.009l-.674-1.945h-.503v3.674h.525v-2.235h.01l.514 1.58h.262l.518-1.58h.01v2.235h.525zm2.982-3.416a.727.727 0 0 0-.297-.201 1.153 1.153 0 0 0-.361-.057h-.8v3.675h.524v-1.435h.269a.968.968 0 0 0 .473-.1.779.779 0 0 0 .286-.278l.002-.003a.893.893 0 0 0 .12-.32 2.56 2.56 0 0 0 .028-.385v-.035.002a2.107 2.107 0 0 0-.051-.525.789.789 0 0 0-.193-.338zm-.27 1.12a.45.45 0 0 1-.05.194l.001-.003a.3.3 0 0 1-.133.128l-.002.001a.525.525 0 0 1-.22.047l-.028-.001h.001-.239v-1.249h.27l.025-.001c.077 0 .149.017.214.048l-.003-.001a.299.299 0 0 1 .122.134l.001.002a.537.537 0 0 1 .046.205v.244c0 .085.005.174 0 .252h-.005zm2.75-1.378h-.429l-.81 3.675h.524l.154-.789h.714l.154.789h.523l-.829-3.675zm-.483 2.384.258-1.332h.01l.256 1.332h-.523zm3.865-.171h-.01l-.79-2.213h-.503v3.675h.523v-2.21h.011l.8 2.209h.493v-3.674h-.523v2.213zm3.199-2.213-.421 1.461h-.011l-.421-1.461h-.554l.719 2.122v1.553h.524v-1.553l.719-2.121h-.555zM17.6 28.611h.252v.708h.171v-.708h.251v-.145H17.6v.146zm2.121-.146-.331.853h.182l.07-.194h.34l.073.194h.187l-.339-.853h-.182zm-.027.516.116-.316.116.316h-.232zm2.124.023h.197v.11a.326.326 0 0 1-.203.072H21.8a.218.218 0 0 1-.169-.081.352.352 0 0 1-.063-.203l.001-.02v.001c0-.19.082-.285.245-.285l.018-.001a.18.18 0 0 1 .174.136v.001l.169-.033c-.036-.166-.156-.251-.362-.251h-.011a.43.43 0 0 0-.287.11.415.415 0 0 0-.123.329v-.001.02c0 .115.041.22.11.301l-.001-.001a.411.411 0 0 0 .297.126l.027-.001h-.001.014a.51.51 0 0 0 .348-.137v-.336h-.37v.144zm2.141-.539h-.173v.853h.597v-.145h-.425v-.708zm1.811 0h-.173v.853h.173v-.853zm1.769.57-.349-.57h-.167v.853h.16v-.557l.343.557h.172v-.853h-.158v.57zm1.601-.093h.425v-.145h-.425v-.187h.457v-.146h-.63v.853h.647v-.145h-.475v-.231zm3.88-.14h-.336v-.336h-.171v.853h.171v-.373h.336v.373h.172v-.853h-.172v.337zm1.609.14h.427v-.145h-.427v-.187h.459v-.146h-.629v.853h.646v-.145h-.475v-.231zm2.183.001c.149-.023.224-.102.224-.237l.001-.024a.205.205 0 0 0-.085-.166h-.001a.478.478 0 0 0-.216-.051l-.035.001h.002-.362v.853h.172v-.357h.048c.034 0 .066.007.094.02l-.001-.001a.181.181 0 0 1 .061.062l.186.271h.205l-.104-.166a.598.598 0 0 0-.187-.203l-.002-.001zm-.173-.118h-.126v-.214h.135l.036-.001c.049 0 .097.008.141.023l-.003-.001c.023.021.037.05.037.083a.114.114 0 0 1-.045.09.464.464 0 0 1-.142.021l-.033-.001h.002zm1.82.117h.425v-.145h-.425v-.187h.459v-.146h-.631v.853h.647v-.145h-.475v-.231z"/></symbol><symbol id="phone" viewBox="0 0 20 32"><path fill="#afb1b8" style="fill:var(--color3, #afb1b8)" d="M19.06 24.113a.794.794 0 0 0-.572-.243l-.03.001h.001-.012a.888.888 0 0 0-.34.067l.006-.002a.785.785 0 0 0-.442.444l-.002.005a.874.874 0 0 0-.062.335v2.023a.957.957 0 0 0 .079.415.808.808 0 0 0 .203.271.714.714 0 0 0 .277.144c.099.027.201.042.302.042a.854.854 0 0 0 .838-.851v-.226h-.53v.192c0 .06-.011.118-.032.171l.001-.003a.315.315 0 0 1-.077.114.367.367 0 0 1-.221.077.265.265 0 0 1-.247-.108l-.001-.001a.478.478 0 0 1-.071-.251v-.021.001-1.887a.643.643 0 0 1 .065-.302.27.27 0 0 1 .227-.124l.033.002h-.001.01c.092 0 .174.045.226.114l.001.001a.425.425 0 0 1 .088.26v.012-.001.175h.524v-.215a.958.958 0 0 0-.067-.352l.002.006a.838.838 0 0 0-.177-.285zm3.142-.022a.92.92 0 0 0-.917-.166.838.838 0 0 0-.483.443l-.002.005a.94.94 0 0 0-.077.392v1.94a.932.932 0 0 0 .077.397.77.77 0 0 0 .205.271.837.837 0 0 0 .279.171.914.914 0 0 0 .919-.172l-.001.001a.831.831 0 0 0 .199-.271.934.934 0 0 0 .077-.397v-1.958a.952.952 0 0 0-.08-.381l.002.006a.876.876 0 0 0-.199-.283zm-.247 2.615.001.03a.349.349 0 0 1-.106.251.388.388 0 0 1-.499 0h.001a.344.344 0 0 1-.106-.25c0-.011 0-.022.002-.032v.001-1.941l-.001-.03c0-.098.041-.187.106-.25a.388.388 0 0 1 .499 0h-.001a.344.344 0 0 1 .106.25l-.001.032v-.001 1.941zm4.374.867v-3.675h-.508l-.668 1.945h-.009l-.674-1.945h-.503v3.674h.525v-2.235h.01l.514 1.58h.262l.518-1.58h.01v2.235h.525zm2.982-3.416a.727.727 0 0 0-.297-.201 1.153 1.153 0 0 0-.361-.057h-.8v3.675h.524v-1.435h.269a.968.968 0 0 0 .473-.1.779.779 0 0 0 .286-.278l.002-.003a.893.893 0 0 0 .12-.32 2.56 2.56 0 0 0 .028-.385v-.035.002a2.107 2.107 0 0 0-.051-.525.789.789 0 0 0-.193-.338zm-.27 1.12a.45.45 0 0 1-.05.194l.001-.003a.3.3 0 0 1-.133.128l-.002.001a.525.525 0 0 1-.22.047l-.028-.001h.001-.239v-1.249h.27l.025-.001c.077 0 .149.017.214.048l-.003-.001a.299.299 0 0 1 .122.134l.001.002a.537.537 0 0 1 .046.205v.244c0 .085.005.174 0 .252h-.005zm2.75-1.378h-.429l-.81 3.675h.524l.154-.789h.714l.154.789h.523l-.829-3.675zm-.483 2.384.258-1.332h.01l.256 1.332h-.523zm3.865-.171h-.01l-.79-2.213h-.503v3.675h.523v-2.21h.011l.8 2.209h.493v-3.674h-.523v2.213zm3.199-2.213-.421 1.461h-.011l-.421-1.461h-.554l.719 2.122v1.553h.524v-1.553l.719-2.121h-.555zM17.6 28.611h.252v.708h.171v-.708h.251v-.145H17.6v.146zm2.121-.146-.331.853h.182l.07-.194h.34l.073.194h.187l-.339-.853h-.182zm-.027.516.116-.316.116.316h-.232zm2.124.023h.197v.11a.326.326 0 0 1-.203.072H21.8a.218.218 0 0 1-.169-.081.352.352 0 0 1-.063-.203l.001-.02v.001c0-.19.082-.285.245-.285l.018-.001a.18.18 0 0 1 .174.136v.001l.169-.033c-.036-.166-.156-.251-.362-.251h-.011a.43.43 0 0 0-.287.11.415.415 0 0 0-.123.329v-.001.02c0 .115.041.22.11.301l-.001-.001a.411.411 0 0 0 .297.126l.027-.001h-.001.014a.51.51 0 0 0 .348-.137v-.336h-.37v.144zm2.141-.539h-.173v.853h.597v-.145h-.425v-.708zm1.811 0h-.173v.853h.173v-.853zm1.769.57-.349-.57h-.167v.853h.16v-.557l.343.557h.172v-.853h-.158v.57zm1.601-.093h.425v-.145h-.425v-.187h.457v-.146h-.63v.853h.647v-.145h-.475v-.231zm3.88-.14h-.336v-.336h-.171v.853h.171v-.373h.336v.373h.172v-.853h-.172v.337zm1.609.14h.427v-.145h-.427v-.187h.459v-.146h-.629v.853h.646v-.145h-.475v-.231zm2.183.001c.149-.023.224-.102.224-.237l.001-.024a.205.205 0 0 0-.085-.166h-.001a.478.478 0 0 0-.216-.051l-.035.001h.002-.362v.853h.172v-.357h.048c.034 0 .066.007.094.02l-.001-.001a.181.181 0 0 1 .061.062l.186.271h.205l-.104-.166a.598.598 0 0 0-.187-.203l-.002-.001zm-.173-.118h-.126v-.214h.135l.036-.001c.049 0 .097.008.141.023l-.003-.001c.023.021.037.05.037.083a.114.114 0 0 1-.045.09.464.464 0 0 1-.142.021l-.033-.001h.002zm1.82.117h.425v-.145h-.425v-.187h.459v-.146h-.631v.853h.647v-.145h-.475v-.231z"/></symbol><symbol id="twitter" viewBox="0 0 32 32"><path fill="#afb1b8" style="fill:var(--color3, #afb1b8)" d="M19.06 24.113a.794.794 0 0 0-.572-.243l-.03.001h.001-.012a.888.888 0 0 0-.34.067l.006-.002a.785.785 0 0 0-.442.444l-.002.005a.874.874 0 0 0-.062.335v2.023a.957.957 0 0 0 .079.415.808.808 0 0 0 .203.271.714.714 0 0 0 .277.144c.099.027.201.042.302.042a.854.854 0 0 0 .838-.851v-.226h-.53v.192c0 .06-.011.118-.032.171l.001-.003a.315.315 0 0 1-.077.114.367.367 0 0 1-.221.077.265.265 0 0 1-.247-.108l-.001-.001a.478.478 0 0 1-.071-.251v-.021.001-1.887a.643.643 0 0 1 .065-.302.27.27 0 0 1 .227-.124l.033.002h-.001.01c.092 0 .174.045.226.114l.001.001a.425.425 0 0 1 .088.26v.012-.001.175h.524v-.215a.958.958 0 0 0-.067-.352l.002.006a.838.838 0 0 0-.177-.285zm3.142-.022a.92.92 0 0 0-.917-.166.838.838 0 0 0-.483.443l-.002.005a.94.94 0 0 0-.077.392v1.94a.932.932 0 0 0 .077.397.77.77 0 0 0 .205.271.837.837 0 0 0 .279.171.914.914 0 0 0 .919-.172l-.001.001a.831.831 0 0 0 .199-.271.934.934 0 0 0 .077-.397v-1.958a.952.952 0 0 0-.08-.381l.002.006a.876.876 0 0 0-.199-.283zm-.247 2.615.001.03a.349.349 0 0 1-.106.251.388.388 0 0 1-.499 0h.001a.344.344 0 0 1-.106-.25c0-.011 0-.022.002-.032v.001-1.941l-.001-.03c0-.098.041-.187.106-.25a.388.388 0 0 1 .499 0h-.001a.344.344 0 0 1 .106.25l-.001.032v-.001 1.941zm4.374.867v-3.675h-.508l-.668 1.945h-.009l-.674-1.945h-.503v3.674h.525v-2.235h.01l.514 1.58h.262l.518-1.58h.01v2.235h.525zm2.982-3.416a.727.727 0 0 0-.297-.201 1.153 1.153 0 0 0-.361-.057h-.8v3.675h.524v-1.435h.269a.968.968 0 0 0 .473-.1.779.779 0 0 0 .286-.278l.002-.003a.893.893 0 0 0 .12-.32 2.56 2.56 0 0 0 .028-.385v-.035.002a2.107 2.107 0 0 0-.051-.525.789.789 0 0 0-.193-.338zm-.27 1.12a.45.45 0 0 1-.05.194l.001-.003a.3.3 0 0 1-.133.128l-.002.001a.525.525 0 0 1-.22.047l-.028-.001h.001-.239v-1.249h.27l.025-.001c.077 0 .149.017.214.048l-.003-.001a.299.299 0 0 1 .122.134l.001.002a.537.537 0 0 1 .046.205v.244c0 .085.005.174 0 .252h-.005zm2.75-1.378h-.429l-.81 3.675h.524l.154-.789h.714l.154.789h.523l-.829-3.675zm-.483 2.384.258-1.332h.01l.256 1.332h-.523zm3.865-.171h-.01l-.79-2.213h-.503v3.675h.523v-2.21h.011l.8 2.209h.493v-3.674h-.523v2.213zm3.199-2.213-.421 1.461h-.011l-.421-1.461h-.554l.719 2.122v1.553h.524v-1.553l.719-2.121h-.555zM17.6 28.611h.252v.708h.171v-.708h.251v-.145H17.6v.146zm2.121-.146-.331.853h.182l.07-.194h.34l.073.194h.187l-.339-.853h-.182zm-.027.516.116-.316.116.316h-.232zm2.124.023h.197v.11a.326.326 0 0 1-.203.072H21.8a.218.218 0 0 1-.169-.081.352.352 0 0 1-.063-.203l.001-.02v.001c0-.19.082-.285.245-.285l.018-.001a.18.18 0 0 1 .174.136v.001l.169-.033c-.036-.166-.156-.251-.362-.251h-.011a.43.43 0 0 0-.287.11.415.415 0 0 0-.123.329v-.001.02c0 .115.041.22.11.301l-.001-.001a.411.411 0 0 0 .297.126l.027-.001h-.001.014a.51.51 0 0 0 .348-.137v-.336h-.37v.144zm2.141-.539h-.173v.853h.597v-.145h-.425v-.708zm1.811 0h-.173v.853h.173v-.853zm1.769.57-.349-.57h-.167v.853h.16v-.557l.343.557h.172v-.853h-.158v.57zm1.601-.093h.425v-.145h-.425v-.187h.457v-.146h-.63v.853h.647v-.145h-.475v-.231zm3.88-.14h-.336v-.336h-.171v.853h.171v-.373h.336v.373h.172v-.853h-.172v.337zm1.609.14h.427v-.145h-.427v-.187h.459v-.146h-.629v.853h.646v-.145h-.475v-.231zm2.183.001c.149-.023.224-.102.224-.237l.001-.024a.205.205 0 0 0-.085-.166h-.001a.478.478 0 0 0-.216-.051l-.035.001h.002-.362v.853h.172v-.357h.048c.034 0 .066.007.094.02l-.001-.001a.181.181 0 0 1 .061.062l.186.271h.205l-.104-.166a.598.598 0 0 0-.187-.203l-.002-.001zm-.173-.118h-.126v-.214h.135l.036-.001c.049 0 .097.008.141.023l-.003-.001c.023.021.037.05.037.083a.114.114 0 0 1-.045.09.464.464 0 0 1-.142.021l-.033-.001h.002zm1.82.117h.425v-.145h-.425v-.187h.459v-.146h-.631v.853h.647v-.145h-.475v-.231z"/></symbol></defs></svg>